<svg width="20" height="20" viewBox="0 0 20 20" fill="none" xmlns="http://www.w3.org/2000/svg">
<path d="M13.2172 13.2172C12.2047 12.9482 11.4379 13.1334 10.3297 13.5734L8.19844 15.7047C7.09219 16.8109 5.29844 16.8109 4.19844 15.7047C3.09219 14.5984 3.09219 12.8047 4.19844 11.7047L6.32969 9.57343H6.90554L8.39844 8.40468C9.21719 8.31718 10.0734 8.57343 10.6984 9.20468C11.3234 9.83593 11.5859 10.6859 11.4984 11.5047C11.9473 11.9942 12.5467 12.0987 13.0217 11.6237L13.5672 10.3359C13.3984 9.37343 12.9422 8.44843 12.1984 7.70468C11.4547 6.96093 10.5297 6.50468 9.56719 6.33593L8.19844 5.91492L6.68594 6.68593C6.14844 6.92343 5.64219 7.26093 5.19844 7.70468L2.69844 10.2047C0.767187 12.1359 0.767187 15.2797 2.69844 17.2109C4.62969 19.1422 7.77344 19.1422 9.70469 17.2109L12.2047 14.7109C12.6422 14.2672 12.9797 13.7609 13.2172 13.2172Z" fill="#9B9B9B"/>
<path d="M17.2048 2.69844C15.2736 0.767187 12.1298 0.767187 10.1986 2.69844L7.69856 5.19844C7.26106 5.64219 6.92356 6.14844 6.68606 6.68594C7.59856 6.27969 8.60481 6.16094 9.57356 6.32969L11.7048 4.19844C12.8111 3.09219 14.6048 3.09219 15.7048 4.19844C16.8048 5.30469 16.8111 7.09844 15.7048 8.19844L13.5736 10.3297L13.2048 10.6984C12.7298 11.1734 12.1236 11.4297 11.5048 11.4984C10.6861 11.5859 9.82981 11.3297 9.20481 10.6984C8.57981 10.0672 8.31731 9.21719 8.40481 8.39844C7.77981 8.46719 7.17981 8.72344 6.70481 9.19844L6.33606 9.56719C6.50481 10.5297 6.96106 11.4547 7.70481 12.1984C8.44856 12.9422 9.37356 13.3984 10.3361 13.5672C11.3048 13.7359 12.3111 13.6172 13.2236 13.2109C13.7611 12.9734 14.2673 12.6359 14.7111 12.1922L17.2111 9.69219C19.1361 7.77344 19.1361 4.62969 17.2048 2.69844Z" fill="#BEBEBE"/>
</svg>
